<svg width="300" height="300" viewBox="0 0 300 300" fill="none" xmlns="http://www.w3.org/2000/svg">
<path d="M155.203 20.3254C153.663 19.2976 151.852 18.749 150 18.749C148.148 18.749 146.337 19.2976 144.797 20.3254C117.469 38.5504 81.4219 56.5036 36.5719 60.9848C34.2577 61.215 32.1117 62.2972 30.5507 64.021C28.9898 65.7449 28.1252 67.9873 28.125 70.3129V150C28.125 186.375 48.0375 217.219 72.1969 239.494C96.3094 261.732 125.981 276.722 148.275 280.904L150 281.222L151.725 280.904C174.019 276.722 203.691 261.732 227.803 239.494C251.962 217.219 271.875 186.375 271.875 150V70.3129C271.875 67.9888 271.012 65.7475 269.453 64.0239C267.894 62.3003 265.75 61.2172 263.438 60.9848C218.578 56.5036 182.531 38.5504 155.203 20.3254Z" fill="url(#paint0_radial_1381_54)"/>
<defs>
<radialGradient id="paint0_radial_1381_54" cx="0" cy="0" r="1" gradientUnits="userSpaceOnUse" gradientTransform="translate(-67.6313 -128.896) rotate(53.644) scale(631.462 563.286)">
<stop offset="0.338" stop-color="#0FAFFF"/>
<stop offset="0.529" stop-color="#367AF2"/>
<stop offset="0.682" stop-color="#5750E2"/>
<stop offset="0.861" stop-color="#CC23D1"/>
</radialGradient>
</defs>
</svg>
